<?xml version="1.0" encoding="UTF-8" standalone="no"?>
<!DOCTYPE svg PUBLIC "-//W3C//DTD SVG 1.1//EN"
 "http://www.w3.org/Graphics/SVG/1.1/DTD/svg11.dtd">
<!-- Generated by graphviz version 2.43.0 (0)
 -->
<!-- Title: TrackRobotHardwareTopology Pages: 1 -->
<svg width="802pt" height="484pt"
 viewBox="0.00 0.00 801.82 484.32" xmlns="http://www.w3.org/2000/svg" xmlns:xlink="http://www.w3.org/1999/xlink">
<g id="graph0" class="graph" transform="scale(1 1) rotate(0) translate(20.16 464.16)">
<title>TrackRobotHardwareTopology</title>
<polygon fill="white" stroke="transparent" points="-20.16,20.16 -20.16,-464.16 781.66,-464.16 781.66,20.16 -20.16,20.16"/>
<text text-anchor="middle" x="380.75" y="-422.4" font-family="Helvetica,sans-Serif" font-size="22.00" fill="#1f2937">Hardware and Compute Topology</text>
<!-- zed -->
<g id="node1" class="node">
<title>zed</title>
<path fill="#e8f1fb" stroke="#2f6b9a" stroke-width="1.25" d="M148,-412C148,-412 12,-412 12,-412 6,-412 0,-406 0,-400 0,-400 0,-384 0,-384 0,-378 6,-372 12,-372 12,-372 148,-372 148,-372 154,-372 160,-378 160,-384 160,-384 160,-400 160,-400 160,-406 154,-412 148,-412"/>
<text text-anchor="middle" x="80" y="-395.2" font-family="Helvetica,sans-Serif" font-size="11.00" fill="#1f2937">Stereolabs ZED2i</text>
<text text-anchor="middle" x="80" y="-383.2" font-family="Helvetica,sans-Serif" font-size="11.00" fill="#1f2937">RGB + Registered Depth</text>
</g>
<!-- jetson -->
<g id="node5" class="node">
<title>jetson</title>
<path fill="#eceff1" stroke="#4b5563" stroke-width="1.6" d="M527,-322C527,-322 243,-322 243,-322 237,-322 231,-316 231,-310 231,-310 231,-282 231,-282 231,-276 237,-270 243,-270 243,-270 527,-270 527,-270 533,-270 539,-276 539,-282 539,-282 539,-310 539,-310 539,-316 533,-322 527,-322"/>
<text text-anchor="middle" x="385" y="-305.2" font-family="Helvetica,sans-Serif" font-size="11.00" fill="#1f2937">NVIDIA Jetson AGX Orin</text>
<text text-anchor="middle" x="385" y="-293.2" font-family="Helvetica,sans-Serif" font-size="11.00" fill="#1f2937">Ubuntu 20.04 &#160;• &#160;ROS 2 Foxy</text>
<text text-anchor="middle" x="385" y="-281.2" font-family="Helvetica,sans-Serif" font-size="11.00" fill="#1f2937">Perception &#160;• &#160;Localization &#160;• &#160;Navigation &#160;• &#160;Safety</text>
</g>
<!-- zed&#45;&gt;jetson -->
<g id="edge1" class="edge">
<title>zed&#45;&gt;jetson</title>
<path fill="none" stroke="#5b6470" stroke-width="1.25" d="M141.72,-371.98C186.28,-358.25 247.08,-339.51 296.76,-324.2"/>
<polygon fill="#5b6470" stroke="#5b6470" stroke-width="1.25" points="297.55,-326.59 303.69,-322.06 296.07,-321.77 297.55,-326.59"/>
<text text-anchor="middle" x="265" y="-344.8" font-family="Helvetica,sans-Serif" font-size="9.00" fill="#4b5563">image / depth</text>
</g>
<!-- lidar -->
<g id="node2" class="node">
<title>lidar</title>
<path fill="#e8f1fb" stroke="#2f6b9a" stroke-width="1.25" d="M363,-412C363,-412 199,-412 199,-412 193,-412 187,-406 187,-400 187,-400 187,-384 187,-384 187,-378 193,-372 199,-372 199,-372 363,-372 363,-372 369,-372 375,-378 375,-384 375,-384 375,-400 375,-400 375,-406 369,-412 363,-412"/>
<text text-anchor="middle" x="281" y="-395.2" font-family="Helvetica,sans-Serif" font-size="11.00" fill="#1f2937">RoboSense RS&#45;Helios&#45;32</text>
<text text-anchor="middle" x="281" y="-383.2" font-family="Helvetica,sans-Serif" font-size="11.00" fill="#1f2937">3D PointCloud2 over Ethernet</text>
</g>
<!-- lidar&#45;&gt;jetson -->
<g id="edge2" class="edge">
<title>lidar&#45;&gt;jetson</title>
<path fill="none" stroke="#5b6470" stroke-width="1.25" d="M302.05,-371.98C316.34,-359.06 335.53,-341.71 351.86,-326.95"/>
<polygon fill="#5b6470" stroke="#5b6470" stroke-width="1.25" points="353.62,-328.76 357.28,-322.06 350.24,-325.02 353.62,-328.76"/>
<text text-anchor="middle" x="359" y="-344.8" font-family="Helvetica,sans-Serif" font-size="9.00" fill="#4b5563">point cloud</text>
</g>
<!-- imu -->
<g id="node3" class="node">
<title>imu</title>
<path fill="#e8f1fb" stroke="#2f6b9a" stroke-width="1.25" d="M565.5,-412C565.5,-412 414.5,-412 414.5,-412 408.5,-412 402.5,-406 402.5,-400 402.5,-400 402.5,-384 402.5,-384 402.5,-378 408.5,-372 414.5,-372 414.5,-372 565.5,-372 565.5,-372 571.5,-372 577.5,-378 577.5,-384 577.5,-384 577.5,-400 577.5,-400 577.5,-406 571.5,-412 565.5,-412"/>
<text text-anchor="middle" x="490" y="-395.2" font-family="Helvetica,sans-Serif" font-size="11.00" fill="#1f2937">Phidget Spatial IMU</text>
<text text-anchor="middle" x="490" y="-383.2" font-family="Helvetica,sans-Serif" font-size="11.00" fill="#1f2937">Raw Inertial Measurements</text>
</g>
<!-- imu&#45;&gt;jetson -->
<g id="edge3" class="edge">
<title>imu&#45;&gt;jetson</title>
<path fill="none" stroke="#5b6470" stroke-width="1.25" d="M468.75,-371.98C454.32,-359.06 434.94,-341.71 418.46,-326.95"/>
<polygon fill="#5b6470" stroke="#5b6470" stroke-width="1.25" points="420.04,-324.98 412.99,-322.06 416.68,-328.74 420.04,-324.98"/>
<text text-anchor="middle" x="469" y="-344.8" font-family="Helvetica,sans-Serif" font-size="9.00" fill="#4b5563">IMU stream</text>
</g>
<!-- rc -->
<g id="node4" class="node">
<title>rc</title>
<path fill="#fce8e6" stroke="#b83a3a" stroke-width="1.25" d="M749.5,-412C749.5,-412 616.5,-412 616.5,-412 610.5,-412 604.5,-406 604.5,-400 604.5,-400 604.5,-384 604.5,-384 604.5,-378 610.5,-372 616.5,-372 616.5,-372 749.5,-372 749.5,-372 755.5,-372 761.5,-378 761.5,-384 761.5,-384 761.5,-400 761.5,-400 761.5,-406 755.5,-412 749.5,-412"/>
<text text-anchor="middle" x="683" y="-395.2" font-family="Helvetica,sans-Serif" font-size="11.00" fill="#1f2937">RC Receiver / E&#45;stop</text>
<text text-anchor="middle" x="683" y="-383.2" font-family="Helvetica,sans-Serif" font-size="11.00" fill="#1f2937">Human Safety Authority</text>
</g>
<!-- rc&#45;&gt;jetson -->
<g id="edge4" class="edge">
<title>rc&#45;&gt;jetson</title>
<path fill="none" stroke="#b83a3a" stroke-width="1.25" d="M622.7,-371.98C579.25,-358.27 519.99,-339.58 471.51,-324.29"/>
<polygon fill="#b83a3a" stroke="#b83a3a" stroke-width="1.25" points="472.07,-321.82 464.44,-322.06 470.55,-326.63 472.07,-321.82"/>
<text text-anchor="middle" x="588" y="-344.8" font-family="Helvetica,sans-Serif" font-size="9.00" fill="#b83a3a">status / override</text>
</g>
<!-- description -->
<g id="node6" class="node">
<title>description</title>
<path fill="#e4f4f1" stroke="#2a7f76" stroke-width="1.25" d="M391,-220C391,-220 195,-220 195,-220 189,-220 183,-214 183,-208 183,-208 183,-192 183,-192 183,-186 189,-180 195,-180 195,-180 391,-180 391,-180 397,-180 403,-186 403,-192 403,-192 403,-208 403,-208 403,-214 397,-220 391,-220"/>
<text text-anchor="middle" x="293" y="-203.2" font-family="Helvetica,sans-Serif" font-size="11.00" fill="#1f2937">Combined Robot Description</text>
<text text-anchor="middle" x="293" y="-191.2" font-family="Helvetica,sans-Serif" font-size="11.00" fill="#1f2937">One robot_state_publisher / TF tree</text>
</g>
<!-- jetson&#45;&gt;description -->
<g id="edge6" class="edge">
<title>jetson&#45;&gt;description</title>
<path fill="none" stroke="#5b6470" stroke-width="1.25" d="M360.35,-269.81C346.91,-256.08 330.35,-239.16 317.01,-225.53"/>
<polygon fill="#5b6470" stroke="#5b6470" stroke-width="1.25" points="318.72,-223.68 311.88,-220.29 315.12,-227.2 318.72,-223.68"/>
<text text-anchor="middle" x="378.5" y="-242.8" font-family="Helvetica,sans-Serif" font-size="9.00" fill="#4b5563">robot_description</text>
</g>
<!-- bunker -->
<g id="node7" class="node">
<title>bunker</title>
<path fill="#eceff1" stroke="#4b5563" stroke-width="1.5" d="M531.5,-130C531.5,-130 422.5,-130 422.5,-130 416.5,-130 410.5,-124 410.5,-118 410.5,-118 410.5,-102 410.5,-102 410.5,-96 416.5,-90 422.5,-90 422.5,-90 531.5,-90 531.5,-90 537.5,-90 543.5,-96 543.5,-102 543.5,-102 543.5,-118 543.5,-118 543.5,-124 537.5,-130 531.5,-130"/>
<text text-anchor="middle" x="477" y="-113.2" font-family="Helvetica,sans-Serif" font-size="11.00" fill="#1f2937">AgileX Bunker Pro 2</text>
<text text-anchor="middle" x="477" y="-101.2" font-family="Helvetica,sans-Serif" font-size="11.00" fill="#1f2937">Bunker SDK / CAN</text>
</g>
<!-- jetson&#45;&gt;bunker -->
<g id="edge5" class="edge">
<title>jetson&#45;&gt;bunker</title>
<path fill="none" stroke="#5b6470" stroke-width="1.25" d="M411.69,-264.21C418.53,-256.31 424,-250 424,-250 424,-250 451.67,-177.42 467.03,-137.15"/>
<polygon fill="#5b6470" stroke="#5b6470" stroke-width="1.25" points="409.59,-262.78 406.78,-269.87 413.4,-266.08 409.59,-262.78"/>
<polygon fill="#5b6470" stroke="#5b6470" stroke-width="1.25" points="469.53,-137.66 469.74,-130.04 464.82,-135.87 469.53,-137.66"/>
<text text-anchor="middle" x="499.5" y="-202.8" font-family="Helvetica,sans-Serif" font-size="9.00" fill="#4b5563">gated /cmd_vel &#160;→</text>
<text text-anchor="middle" x="499.5" y="-192.8" font-family="Helvetica,sans-Serif" font-size="9.00" fill="#4b5563">← &#160;odometry + status</text>
</g>
<!-- piper -->
<g id="node8" class="node">
<title>piper</title>
<path fill="#f7f7f7" stroke="#9ca3af" stroke-width="1.25" d="M163,-130C163,-130 17,-130 17,-130 11,-130 5,-124 5,-118 5,-118 5,-102 5,-102 5,-96 11,-90 17,-90 17,-90 163,-90 163,-90 169,-90 175,-96 175,-102 175,-102 175,-118 175,-118 175,-124 169,-130 163,-130"/>
<text text-anchor="middle" x="90" y="-113.2" font-family="Helvetica,sans-Serif" font-size="11.00" fill="#6b7280">AgileX PiPER + Gripper</text>
<text text-anchor="middle" x="90" y="-101.2" font-family="Helvetica,sans-Serif" font-size="11.00" fill="#6b7280">URDF / JointState / TF only</text>
</g>
<!-- description&#45;&gt;piper -->
<g id="edge8" class="edge">
<title>description&#45;&gt;piper</title>
<path fill="none" stroke="#9ca3af" stroke-width="1.25" stroke-dasharray="5,2" d="M248.95,-179.91C217.16,-166.12 174.16,-147.48 140.9,-133.07"/>
<polygon fill="#9ca3af" stroke="#9ca3af" stroke-width="1.25" points="141.57,-130.61 133.96,-130.06 139.57,-135.23 141.57,-130.61"/>
<text text-anchor="middle" x="228.5" y="-152.8" font-family="Helvetica,sans-Serif" font-size="9.00" fill="#6b7280">joint1…joint8</text>
</g>
<!-- sensor_station -->
<g id="node10" class="node">
<title>sensor_station</title>
<path fill="#e8f1fb" stroke="#2f6b9a" stroke-width="1.25" d="M371.5,-130C371.5,-130 214.5,-130 214.5,-130 208.5,-130 202.5,-124 202.5,-118 202.5,-118 202.5,-102 202.5,-102 202.5,-96 208.5,-90 214.5,-90 214.5,-90 371.5,-90 371.5,-90 377.5,-90 383.5,-96 383.5,-102 383.5,-102 383.5,-118 383.5,-118 383.5,-124 377.5,-130 371.5,-130"/>
<text text-anchor="middle" x="293" y="-113.2" font-family="Helvetica,sans-Serif" font-size="11.00" fill="#1f2937">Sensor Station</text>
<text text-anchor="middle" x="293" y="-101.2" font-family="Helvetica,sans-Serif" font-size="11.00" fill="#1f2937">ZED2i + RS&#45;Helios mounting</text>
</g>
<!-- description&#45;&gt;sensor_station -->
<g id="edge7" class="edge">
<title>description&#45;&gt;sensor_station</title>
<path fill="none" stroke="#5b6470" stroke-width="1.25" d="M293,-179.91C293,-167.45 293,-151.03 293,-137.34"/>
<polygon fill="#5b6470" stroke="#5b6470" stroke-width="1.25" points="295.52,-137.26 293,-130.06 290.48,-137.26 295.52,-137.26"/>
<text text-anchor="middle" x="311" y="-152.8" font-family="Helvetica,sans-Serif" font-size="9.00" fill="#4b5563">fixed TF</text>
</g>
<!-- l515 -->
<g id="node9" class="node">
<title>l515</title>
<path fill="#f7f7f7" stroke="#9ca3af" stroke-width="1.25" d="M142.5,-40C142.5,-40 37.5,-40 37.5,-40 31.5,-40 25.5,-34 25.5,-28 25.5,-28 25.5,-12 25.5,-12 25.5,-6 31.5,0 37.5,0 37.5,0 142.5,0 142.5,0 148.5,0 154.5,-6 154.5,-12 154.5,-12 154.5,-28 154.5,-28 154.5,-34 148.5,-40 142.5,-40"/>
<text text-anchor="middle" x="90" y="-23.2" font-family="Helvetica,sans-Serif" font-size="11.00" fill="#6b7280">Arm&#45;Mounted L515</text>
<text text-anchor="middle" x="90" y="-11.2" font-family="Helvetica,sans-Serif" font-size="11.00" fill="#6b7280">visual model only</text>
</g>
<!-- piper&#45;&gt;l515 -->
<g id="edge9" class="edge">
<title>piper&#45;&gt;l515</title>
<path fill="none" stroke="#9ca3af" stroke-width="1.25" stroke-dasharray="5,2" d="M90,-89.91C90,-77.45 90,-61.03 90,-47.34"/>
<polygon fill="#9ca3af" stroke="#9ca3af" stroke-width="1.25" points="92.52,-47.26 90,-40.06 87.48,-47.26 92.52,-47.26"/>
<text text-anchor="middle" x="112.5" y="-62.8" font-family="Helvetica,sans-Serif" font-size="9.00" fill="#6b7280">visual link</text>
</g>
</g>
</svg>
