<?xml version="1.0" encoding="UTF-8" standalone="no"?>
<!DOCTYPE svg PUBLIC "-//W3C//DTD SVG 1.1//EN"
 "http://www.w3.org/Graphics/SVG/1.1/DTD/svg11.dtd">
<!-- Generated by graphviz version 2.43.0 (0)
 -->
<!-- Title: TrackRobotPaperHumanFollowing Pages: 1 -->
<svg width="736pt" height="537pt"
 viewBox="0.00 0.00 736.02 536.52" xmlns="http://www.w3.org/2000/svg" xmlns:xlink="http://www.w3.org/1999/xlink">
<g id="graph0" class="graph" transform="scale(1 1) rotate(0) translate(5.76 530.76)">
<title>TrackRobotPaperHumanFollowing</title>
<polygon fill="white" stroke="transparent" points="-5.76,5.76 -5.76,-530.76 730.26,-530.76 730.26,5.76 -5.76,5.76"/>
<g id="clust2" class="cluster">
<title>cluster_identity</title>
<polygon fill="#fbfbfa" stroke="#b9bec3" stroke-width="0.7" points="8,-303 8,-456 301,-456 301,-303 8,-303"/>
<text text-anchor="middle" x="57" y="-445.36" font-family="Liberation Sans" font-size="8.30" fill="#4f565d">SEMANTIC IDENTITY</text>
</g>
<g id="clust4" class="cluster">
<title>cluster_geometry</title>
<polygon fill="#fbfbfa" stroke="#b9bec3" stroke-width="0.7" points="301,-303 301,-456 467,-456 467,-303 301,-303"/>
<text text-anchor="middle" x="350" y="-445.36" font-family="Liberation Sans" font-size="8.30" fill="#4f565d">METRIC GEOMETRY</text>
</g>
<!-- image&#45;&gt;pose -->
<g id="edge5" class="edge">
<title>image&#45;&gt;pose</title>
<path fill="none" stroke="#555b61" stroke-width="0.85" d="M180,-488.58C180,-473.44 180,-451.39 180,-434.67"/>
<polygon fill="#555b61" stroke="#555b61" stroke-width="0.85" points="182.1,-434.31 180,-428.31 177.9,-434.31 182.1,-434.31"/>
<text text-anchor="middle" x="185" y="-465.92" font-family="Liberation Sans" font-size="7.60" fill="#40464c">I_t</text>
</g>
<!-- cloud&#45;&gt;clusters -->
<g id="edge6" class="edge">
<title>cloud&#45;&gt;clusters</title>
<path fill="none" stroke="#555b61" stroke-width="0.85" d="M384,-488.58C384,-473.44 384,-451.39 384,-434.67"/>
<polygon fill="#555b61" stroke="#555b61" stroke-width="0.85" points="386.1,-434.31 384,-428.31 381.9,-434.31 386.1,-434.31"/>
<text text-anchor="middle" x="390.5" y="-465.92" font-family="Liberation Sans" font-size="7.60" fill="#40464c">P_t</text>
</g>
<!-- health&#45;&gt;session -->
<g id="edge16" class="edge">
<title>health&#45;&gt;session</title>
<path fill="none" stroke="#87514f" stroke-width="0.85" stroke-dasharray="5,2" d="M614.29,-77.92C585.22,-66.29 552,-53 552,-53 552,-53 474.7,-40.12 415.26,-30.21"/>
<polygon fill="#87514f" stroke="#87514f" stroke-width="0.85" points="415.47,-28.12 409.21,-29.2 414.78,-32.26 415.47,-28.12"/>
<text text-anchor="middle" x="586.5" y="-54.92" font-family="Liberation Sans" font-size="7.60" fill="#40464c">fail closed</text>
</g>
<!-- health&#45;&gt;safety -->
<g id="edge17" class="edge">
<title>health&#45;&gt;safety</title>
<path fill="none" stroke="#87514f" stroke-width="0.85" stroke-dasharray="5,2" d="M644.8,-77.92C636.49,-66.29 627,-53 627,-53 627,-53 607.93,-45.95 587.16,-38.28"/>
<polygon fill="#87514f" stroke="#87514f" stroke-width="0.85" points="587.63,-36.21 581.27,-36.1 586.17,-40.15 587.63,-36.21"/>
</g>
<!-- pose&#45;&gt;gesture -->
<g id="edge1" class="edge">
<title>pose&#45;&gt;gesture</title>
<path fill="none" stroke="#555b61" stroke-width="0.85" d="M156.44,-391.94C140.87,-380.68 120.38,-365.85 103.84,-353.88"/>
<polygon fill="#555b61" stroke="#555b61" stroke-width="0.85" points="104.94,-352.08 98.85,-350.26 102.48,-355.48 104.94,-352.08"/>
<text text-anchor="middle" x="147" y="-368.92" font-family="Liberation Sans" font-size="7.60" fill="#40464c">keypoints</text>
</g>
<!-- pose&#45;&gt;lock -->
<g id="edge2" class="edge">
<title>pose&#45;&gt;lock</title>
<path fill="none" stroke="#555b61" stroke-width="0.85" d="M193.16,-391.75C201.47,-380.87 212.27,-366.71 221.2,-355.02"/>
<polygon fill="#555b61" stroke="#555b61" stroke-width="0.85" points="222.92,-356.22 224.89,-350.18 219.58,-353.67 222.92,-356.22"/>
<text text-anchor="middle" x="232" y="-368.92" font-family="Liberation Sans" font-size="7.60" fill="#40464c">track identity</text>
</g>
<!-- gesture&#45;&gt;lock -->
<g id="edge3" class="edge">
<title>gesture&#45;&gt;lock</title>
<path fill="none" stroke="#87514f" stroke-width="0.85" stroke-dasharray="5,2" d="M131.1,-332C146.79,-332 163.87,-332 179.69,-332"/>
<polygon fill="#87514f" stroke="#87514f" stroke-width="0.85" points="179.91,-334.1 185.91,-332 179.91,-329.9 179.91,-334.1"/>
<text text-anchor="middle" x="158.5" y="-336.92" font-family="Liberation Sans" font-size="7.60" fill="#40464c">authorize</text>
</g>
<!-- gesture&#45;&gt;session -->
<g id="edge13" class="edge">
<title>gesture&#45;&gt;session</title>
<path fill="none" stroke="#87514f" stroke-width="0.85" stroke-dasharray="5,2" d="M76.11,-313.69C77.58,-290.71 80,-253 80,-253 80,-253 80,-253 80,-95 80,-95 122,-78 122,-78 122,-78 214.26,-53.92 280.88,-36.52"/>
<polygon fill="#87514f" stroke="#87514f" stroke-width="0.85" points="281.57,-38.51 286.84,-34.97 280.51,-34.45 281.57,-38.51"/>
<text text-anchor="middle" x="98.5" y="-171.92" font-family="Liberation Sans" font-size="7.60" fill="#87514f">start / stop</text>
</g>
<!-- lock&#45;&gt;fusion -->
<g id="edge7" class="edge">
<title>lock&#45;&gt;fusion</title>
<path fill="none" stroke="#555b61" stroke-width="0.85" d="M238,-313.69C238,-302.68 238,-288.29 238,-276.29"/>
<polygon fill="#555b61" stroke="#555b61" stroke-width="0.85" points="240.1,-276.26 238,-270.26 235.9,-276.26 240.1,-276.26"/>
<text text-anchor="middle" x="257" y="-288.92" font-family="Liberation Sans" font-size="7.60" fill="#40464c">identity y_t</text>
</g>
<!-- clusters&#45;&gt;tracklets -->
<g id="edge4" class="edge">
<title>clusters&#45;&gt;tracklets</title>
<path fill="none" stroke="#555b61" stroke-width="0.85" d="M383.55,-391.75C383.27,-381.26 382.91,-367.72 382.61,-356.28"/>
<polygon fill="#555b61" stroke="#555b61" stroke-width="0.85" points="384.71,-356.12 382.45,-350.18 380.51,-356.23 384.71,-356.12"/>
<text text-anchor="middle" x="403" y="-368.92" font-family="Liberation Sans" font-size="7.60" fill="#40464c">association</text>
</g>
<!-- tracklets&#45;&gt;fusion -->
<g id="edge8" class="edge">
<title>tracklets&#45;&gt;fusion</title>
<path fill="none" stroke="#555b61" stroke-width="0.85" d="M350.4,-313.88C328.17,-301.84 298.35,-285.69 275.01,-273.05"/>
<polygon fill="#555b61" stroke="#555b61" stroke-width="0.85" points="275.8,-271.09 269.53,-270.08 273.8,-274.78 275.8,-271.09"/>
<text text-anchor="middle" x="337" y="-288.92" font-family="Liberation Sans" font-size="7.60" fill="#40464c">geometry g_t</text>
</g>
<!-- fusion&#45;&gt;imm -->
<g id="edge9" class="edge">
<title>fusion&#45;&gt;imm</title>
<path fill="none" stroke="#555b61" stroke-width="0.85" d="M232.55,-233.75C229.21,-223.16 224.88,-209.47 221.25,-197.96"/>
<polygon fill="#555b61" stroke="#555b61" stroke-width="0.85" points="223.23,-197.27 219.42,-192.18 219.23,-198.53 223.23,-197.27"/>
<text text-anchor="middle" x="268.5" y="-210.92" font-family="Liberation Sans" font-size="7.60" fill="#40464c">selected observation z_t</text>
</g>
<!-- imm&#45;&gt;decision -->
<g id="edge10" class="edge">
<title>imm&#45;&gt;decision</title>
<path fill="none" stroke="#555b61" stroke-width="0.85" d="M209.69,-155.75C207.06,-145.26 203.68,-131.72 200.82,-120.28"/>
<polygon fill="#555b61" stroke="#555b61" stroke-width="0.85" points="202.79,-119.49 199.29,-114.18 198.71,-120.51 202.79,-119.49"/>
<text text-anchor="middle" x="218.5" y="-132.92" font-family="Liberation Sans" font-size="7.60" fill="#40464c">x_t, Σ_t</text>
</g>
<!-- decision&#45;&gt;controller -->
<g id="edge11" class="edge">
<title>decision&#45;&gt;controller</title>
<path fill="none" stroke="#555b61" stroke-width="0.85" d="M257.07,-96C268.32,-96 285.15,-96 294.42,-96"/>
<polygon fill="#555b61" stroke="#555b61" stroke-width="0.85" points="294.67,-98.1 300.67,-96 294.67,-93.9 294.67,-98.1"/>
</g>
<!-- decision&#45;&gt;session -->
<g id="edge14" class="edge">
<title>decision&#45;&gt;session</title>
<path fill="none" stroke="#87514f" stroke-width="0.85" stroke-dasharray="5,2" d="M229.34,-77.94C252.68,-66.35 283.64,-50.97 308.09,-38.83"/>
<polygon fill="#87514f" stroke="#87514f" stroke-width="0.85" points="309.07,-40.68 313.51,-36.13 307.21,-36.92 309.07,-40.68"/>
<text text-anchor="middle" x="300.5" y="-54.92" font-family="Liberation Sans" font-size="7.60" fill="#40464c">decision state</text>
</g>
<!-- controller&#45;&gt;avoidance -->
<g id="edge12" class="edge">
<title>controller&#45;&gt;avoidance</title>
<path fill="none" stroke="#555b61" stroke-width="0.85" d="M395.26,-96C398,-96 399.67,-96 399.67,-96 399.67,-96 417.52,-96 432.24,-96"/>
<polygon fill="#555b61" stroke="#555b61" stroke-width="0.85" points="432.3,-98.1 438.3,-96 432.3,-93.9 432.3,-98.1"/>
</g>
<!-- avoidance&#45;&gt;session -->
<g id="edge15" class="edge">
<title>avoidance&#45;&gt;session</title>
<path fill="none" stroke="#87514f" stroke-width="0.85" stroke-dasharray="5,2" d="M468.21,-77.94C444.57,-66.35 413.2,-50.97 388.44,-38.83"/>
<polygon fill="#87514f" stroke="#87514f" stroke-width="0.85" points="389.25,-36.89 382.94,-36.13 387.4,-40.66 389.25,-36.89"/>
<text text-anchor="middle" x="458" y="-54.92" font-family="Liberation Sans" font-size="7.60" fill="#40464c">avoidance state</text>
</g>
<!-- avoidance&#45;&gt;safety -->
<g id="edge19" class="edge">
<title>avoidance&#45;&gt;safety</title>
<path fill="none" stroke="#555b61" stroke-width="0.85" d="M510.26,-77.75C514.72,-67.16 520.49,-53.47 525.33,-41.96"/>
<polygon fill="#555b61" stroke="#555b61" stroke-width="0.85" points="527.37,-42.52 527.77,-36.18 523.5,-40.89 527.37,-42.52"/>
<text text-anchor="middle" x="533" y="-54.92" font-family="Liberation Sans" font-size="7.60" fill="#40464c">u_avoid</text>
</g>
<!-- session&#45;&gt;safety -->
<g id="edge18" class="edge">
<title>session&#45;&gt;safety</title>
<path fill="none" stroke="#87514f" stroke-width="0.85" stroke-dasharray="5,2" d="M409.23,-18C427.89,-18 448.51,-18 467.56,-18"/>
<polygon fill="#87514f" stroke="#87514f" stroke-width="0.85" points="467.95,-20.1 473.95,-18 467.95,-15.9 467.95,-20.1"/>
<text text-anchor="middle" x="441.5" y="-22.92" font-family="Liberation Sans" font-size="7.60" fill="#40464c">arm / disarm</text>
</g>
<!-- safety&#45;&gt;gate -->
<g id="edge20" class="edge">
<title>safety&#45;&gt;gate</title>
<path fill="none" stroke="#555b61" stroke-width="0.85" d="M596.02,-18C610,-18 629.67,-18 629.67,-18 629.67,-18 630.92,-18 633.01,-18"/>
<polygon fill="#555b61" stroke="#555b61" stroke-width="0.85" points="633.25,-20.1 639.25,-18 633.25,-15.9 633.25,-20.1"/>
</g>
<!-- image -->
<g id="node1" class="node">
<title>image</title>
<polygon fill="#eaf1f5" stroke="#557a91" stroke-width="0.85" points="215.5,-525 144.5,-525 144.5,-489 215.5,-489 215.5,-525"/>
<text text-anchor="start" x="151.5" y="-509.3" font-family="Liberation Sans" font-weight="bold" font-size="9.00" fill="#202428">RGB image I</text>
<text text-anchor="start" x="205.5" y="-509.3" font-family="Liberation Sans" font-weight="bold" baseline-shift="sub" font-size="9.00" fill="#202428">t</text>
<text text-anchor="start" x="168.5" y="-501.1" font-family="Liberation Sans" font-size="8.00" fill="#202428">ZED2i</text>
</g>
<!-- cloud -->
<g id="node2" class="node">
<title>cloud</title>
<polygon fill="#eaf1f5" stroke="#557a91" stroke-width="0.85" points="420.5,-525 347.5,-525 347.5,-489 420.5,-489 420.5,-525"/>
<text text-anchor="start" x="354.5" y="-509.3" font-family="Liberation Sans" font-weight="bold" font-size="9.00" fill="#202428">Point cloud P</text>
<text text-anchor="start" x="410.5" y="-509.3" font-family="Liberation Sans" font-weight="bold" baseline-shift="sub" font-size="9.00" fill="#202428">t</text>
<text text-anchor="start" x="359.5" y="-501.1" font-family="Liberation Sans" font-size="8.00" fill="#202428">RS&#45;Helios&#45;32</text>
</g>
<!-- health -->
<g id="node3" class="node">
<title>health</title>
<polygon fill="#f5eceb" stroke="#87514f" stroke-width="0.85" points="724.5,-114 589.5,-114 589.5,-78 724.5,-78 724.5,-114"/>
<text text-anchor="start" x="620.5" y="-98.3" font-family="Liberation Sans" font-weight="bold" font-size="9.00" fill="#202428">System health h</text>
<text text-anchor="start" x="690.5" y="-98.3" font-family="Liberation Sans" font-weight="bold" baseline-shift="sub" font-size="9.00" fill="#202428">t</text>
<text text-anchor="start" x="596.5" y="-90.1" font-family="Liberation Sans" font-size="8.00" fill="#202428">RC · E&#45;stop · Bunker · perception</text>
</g>
<!-- pose -->
<g id="node4" class="node">
<title>pose</title>
<polygon fill="#f0eef3" stroke="#6b607b" stroke-width="0.85" points="242,-428 118,-428 118,-392 242,-392 242,-428"/>
<text text-anchor="start" x="125" y="-412.3" font-family="Liberation Sans" font-weight="bold" font-size="9.00" fill="#202428">Person pose and tracking</text>
<text text-anchor="start" x="133" y="-404.1" font-family="Liberation Sans" font-size="8.00" fill="#202428">YOLOv8 Pose · ByteTrack</text>
</g>
<!-- gesture -->
<g id="node5" class="node">
<title>gesture</title>
<polygon fill="#f4f0e5" stroke="#8a6a2f" stroke-width="0.85" points="131,-350 19,-350 19,-314 131,-314 131,-350"/>
<text text-anchor="start" x="26" y="-334.3" font-family="Liberation Sans" font-weight="bold" font-size="9.00" fill="#202428">Gesture state machine</text>
<text text-anchor="start" x="32" y="-326.1" font-family="Liberation Sans" font-size="8.00" fill="#202428">start / stop authorization</text>
</g>
<!-- lock -->
<g id="node6" class="node">
<title>lock</title>
<polygon fill="#eaf3f1" stroke="#527d75" stroke-width="0.85" points="290,-350 186,-350 186,-314 290,-314 290,-350"/>
<text text-anchor="start" x="198.5" y="-334.3" font-family="Liberation Sans" font-weight="bold" font-size="9.00" fill="#202428">Logical target lock</text>
<text text-anchor="start" x="193" y="-326.1" font-family="Liberation Sans" font-size="8.00" fill="#202428">camera&#45;owned identity y</text>
<text text-anchor="start" x="281" y="-326.1" font-family="Liberation Sans" baseline-shift="sub" font-size="8.00" fill="#202428">t</text>
</g>
<!-- clusters -->
<g id="node7" class="node">
<title>clusters</title>
<polygon fill="#eaf3f1" stroke="#527d75" stroke-width="0.85" points="456,-428 312,-428 312,-392 456,-392 456,-428"/>
<text text-anchor="start" x="319" y="-412.3" font-family="Liberation Sans" font-weight="bold" font-size="9.00" fill="#202428">Generic human&#45;scale clusters</text>
<text text-anchor="start" x="335" y="-404.1" font-family="Liberation Sans" font-size="8.00" fill="#202428">LiDAR geometric proposals</text>
</g>
<!-- tracklets -->
<g id="node8" class="node">
<title>tracklets</title>
<polygon fill="#eaf3f1" stroke="#527d75" stroke-width="0.85" points="449.5,-350 314.5,-350 314.5,-314 449.5,-314 449.5,-350"/>
<text text-anchor="start" x="339.5" y="-334.3" font-family="Liberation Sans" font-weight="bold" font-size="9.00" fill="#202428">Persistent tracklets</text>
<text text-anchor="start" x="321.5" y="-326.1" font-family="Liberation Sans" font-size="8.00" fill="#202428">metric position and continuation g</text>
<text text-anchor="start" x="440.5" y="-326.1" font-family="Liberation Sans" baseline-shift="sub" font-size="8.00" fill="#202428">t</text>
</g>
<!-- fusion -->
<g id="node9" class="node">
<title>fusion</title>
<polygon fill="#eaf3f1" stroke="#527d75" stroke-width="0.85" points="322.5,-270 153.5,-270 153.5,-234 322.5,-234 322.5,-270"/>
<text text-anchor="start" x="179" y="-254.3" font-family="Liberation Sans" font-weight="bold" font-size="9.00" fill="#202428">Selected&#45;target association</text>
<text text-anchor="start" x="160.5" y="-246.1" font-family="Liberation Sans" font-size="8.00" fill="#202428">camera&#45;guided anchor · bounded matching</text>
</g>
<!-- imm -->
<g id="node10" class="node">
<title>imm</title>
<polygon fill="#eaf3f1" stroke="#527d75" stroke-width="1.05" points="280,-192 148,-192 148,-156 280,-156 280,-192"/>
<text text-anchor="start" x="155" y="-176.3" font-family="Liberation Sans" font-weight="bold" font-size="9.00" fill="#202428">Three&#45;model IMM estimator</text>
<text text-anchor="start" x="156" y="-168.1" font-family="Liberation Sans" font-size="8.00" fill="#202428">target state x</text>
<text text-anchor="start" x="203" y="-168.1" font-family="Liberation Sans" baseline-shift="sub" font-size="8.00" fill="#202428">t</text>
<text text-anchor="start" x="205" y="-168.1" font-family="Liberation Sans" font-size="8.00" fill="#202428"> and uncertainty Σ</text>
<text text-anchor="start" x="270" y="-168.1" font-family="Liberation Sans" baseline-shift="sub" font-size="8.00" fill="#202428">t</text>
</g>
<!-- decision -->
<g id="node11" class="node">
<title>decision</title>
<polygon fill="#f4f0e5" stroke="#8a6a2f" stroke-width="0.85" points="257,-114 133,-114 133,-78 257,-78 257,-114"/>
<text text-anchor="start" x="162" y="-98.3" font-family="Liberation Sans" font-weight="bold" font-size="9.00" fill="#202428">Follow decision</text>
<text text-anchor="start" x="140" y="-90.1" font-family="Liberation Sans" font-size="8.00" fill="#202428">distance · bearing · confidence</text>
</g>
<!-- controller -->
<g id="node12" class="node">
<title>controller</title>
<polygon fill="#f4f0e5" stroke="#8a6a2f" stroke-width="0.85" points="395,-114 301,-114 301,-78 395,-78 395,-114"/>
<text text-anchor="start" x="312.5" y="-98.3" font-family="Liberation Sans" font-weight="bold" font-size="9.00" fill="#202428">Target controller</text>
<text text-anchor="start" x="308" y="-90.1" font-family="Liberation Sans" font-size="8.00" fill="#202428">nominal velocity u</text>
<text text-anchor="start" x="371" y="-90.1" font-family="Liberation Sans" baseline-shift="sub" font-size="8.00" fill="#202428">follow</text>
</g>
<!-- avoidance -->
<g id="node13" class="node">
<title>avoidance</title>
<polygon fill="#f4f0e5" stroke="#8a6a2f" stroke-width="0.85" points="567.5,-114 438.5,-114 438.5,-78 567.5,-78 567.5,-114"/>
<text text-anchor="start" x="445.5" y="-98.3" font-family="Liberation Sans" font-weight="bold" font-size="9.00" fill="#202428">Local trajectory avoidance</text>
<text text-anchor="start" x="446.5" y="-90.1" font-family="Liberation Sans" font-size="8.00" fill="#202428">collision&#45;aware command u</text>
<text text-anchor="start" x="543.5" y="-90.1" font-family="Liberation Sans" baseline-shift="sub" font-size="8.00" fill="#202428">avoid</text>
</g>
<!-- session -->
<g id="node14" class="node">
<title>session</title>
<polygon fill="#f5eceb" stroke="#87514f" stroke-width="0.85" points="409,-36 287,-36 287,0 409,0 409,-36"/>
<text text-anchor="start" x="306" y="-20.3" font-family="Liberation Sans" font-weight="bold" font-size="9.00" fill="#202428">Session supervisor</text>
<text text-anchor="start" x="294" y="-12.1" font-family="Liberation Sans" font-size="8.00" fill="#202428">shadow / active · arm / disarm</text>
</g>
<!-- safety -->
<g id="node15" class="node">
<title>safety</title>
<polygon fill="#f5eceb" stroke="#87514f" stroke-width="1.05" points="596,-36 474,-36 474,0 596,0 596,-36"/>
<text text-anchor="start" x="481.5" y="-20.3" font-family="Liberation Sans" font-weight="bold" font-size="9.00" fill="#202428">Motion safety supervisor</text>
<text text-anchor="start" x="481" y="-12.1" font-family="Liberation Sans" font-size="8.00" fill="#202428">watchdogs · collision envelope</text>
</g>
<!-- gate -->
<g id="node16" class="node">
<title>gate</title>
<polygon fill="#f5eceb" stroke="#87514f" stroke-width="1.05" points="714.5,-36 639.5,-36 639.5,0 714.5,0 714.5,-36"/>
<text text-anchor="start" x="646.5" y="-20.3" font-family="Liberation Sans" font-weight="bold" font-size="9.00" fill="#202428">cmd_vel_gate</text>
<text text-anchor="start" x="648.5" y="-12.1" font-family="Liberation Sans" font-size="8.00" fill="#202428">u</text>
<text text-anchor="start" x="653.5" y="-12.1" font-family="Liberation Sans" baseline-shift="sub" font-size="8.00" fill="#202428">safe</text>
<text text-anchor="start" x="666.5" y="-12.1" font-family="Liberation Sans" font-size="8.00" fill="#202428"> → Bunker</text>
</g>
</g>
</svg>
